<svg width="20" height="34" viewBox="0 0 20 34" version="1.1" xmlns="http://www.w3.org/2000/svg" xmlns:xlink="http://www.w3.org/1999/xlink">
<title>Group</title>
<desc>Created using Figma</desc>
<g id="Canvas" transform="translate(71 -249)">
<g id="Group">
<g id="Rectangle">
<mask id="mask0_outline_ins">
<use xlink:href="#path0_fill" fill="white" transform="translate(-71 249)"/>
</mask>
<g mask="url(#mask0_outline_ins)">
<use xlink:href="#path1_stroke_2x" transform="translate(-71 249)" fill="#115FFE"/>
</g>
</g>
<g id="Rectangle 2">
<use xlink:href="#path2_fill" transform="translate(-62 257)" fill="#115FFE"/>
</g>
</g>
</g>
<defs>
<path id="path0_fill" d="M 0 10C 0 4.47715 4.47715 0 10 0C 15.5228 0 20 4.47715 20 10L 20 24C 20 29.5228 15.5228 34 10 34C 4.47715 34 0 29.5228 0 24L 0 10Z"/>
<path id="path1_stroke_2x" d="M 18 10L 18 24L 22 24L 22 10L 18 10ZM 2 24L 2 10L -2 10L -2 24L 2 24ZM 10 32C 5.58172 32 2 28.4183 2 24L -2 24C -2 30.6274 3.37258 36 10 36L 10 32ZM 18 24C 18 28.4183 14.4183 32 10 32L 10 36C 16.6274 36 22 30.6274 22 24L 18 24ZM 10 2C 14.4183 2 18 5.58172 18 10L 22 10C 22 3.37258 16.6274 -2 10 -2L 10 2ZM 10 -2C 3.37258 -2 -2 3.37258 -2 10L 2 10C 2 5.58172 5.58172 2 10 2L 10 -2Z"/>
<path id="path2_fill" d="M 0 1C 0 0.447715 0.447715 0 1 0L 1 0C 1.55228 0 2 0.447715 2 1L 2 5C 2 5.55228 1.55228 6 1 6L 1 6C 0.447715 6 0 5.55228 0 5L 0 1Z"/>
</defs>
</svg>
