<?xml version="1.0" encoding="utf-8"?>
<!-- Generator: Adobe Illustrator 21.1.0, SVG Export Plug-In . SVG Version: 6.00 Build 0)  -->
<svg version="1.1" id="Слой_3" xmlns="http://www.w3.org/2000/svg" xmlns:xlink="http://www.w3.org/1999/xlink" x="0px" y="0px"
	 viewBox="0 0 20.1 34.6" style="enable-background:new 0 0 20.1 34.6;" xml:space="preserve">
<style type="text/css">
	.st0{fill:#115FFE;}
</style>
<path class="st0" d="M10.1,2.5c4.1,0,7.5,3.4,7.5,7.5v14.5c0,4.1-3.4,7.5-7.5,7.5h0c-4.1,0-7.5-3.4-7.5-7.5V10
	C2.5,5.9,5.9,2.5,10.1,2.5L10.1,2.5 M10.1,0C4.5,0,0,4.5,0,10v14.5c0,5.5,4.5,10,10,10c5.5,0,10-4.5,10-10V10
	C20.1,4.5,15.6,0,10.1,0L10.1,0z"/>
<g>
	<path class="st0" d="M10.1,14.5L10.1,14.5c-0.7,0-1.3-0.6-1.3-1.3V9.8c0-0.7,0.6-1.3,1.3-1.3h0c0.7,0,1.3,0.6,1.3,1.3v3.4
		C11.3,13.9,10.8,14.5,10.1,14.5z"/>
</g>
</svg>
